<svg xmlns="http://www.w3.org/2000/svg" version="1.1" xmlns:xlink="http://www.w3.org/1999/xlink" xmlns:svgjs="http://svgjs.dev/svgjs" width="1000" height="1000" viewBox="0 0 1000 1000"><rect width="1000" height="1000" fill="#ffffff"></rect><g transform="matrix(0.7,0,0,0.7,149.57575767478215,458.0466606527791)"><svg viewBox="0 0 396 48" data-background-color="#ffffff" preserveAspectRatio="xMidYMid meet" height="121" width="1000" xmlns="http://www.w3.org/2000/svg" xmlns:xlink="http://www.w3.org/1999/xlink"><g id="tight-bounds" transform="matrix(1,0,0,1,0.24000005601965313,-0.22478935255867327)"><svg viewBox="0 0 395.52 48.44957911607932" height="48.44957911607932" width="395.52"><g><svg viewBox="0 0 477.8687212891844 58.53696" height="48.44957911607932" width="395.52"><g><rect width="3.819770957266802" height="50.82804052098408" x="68.52954992022444" y="3.854459739507959" fill="#ed3b43" opacity="1" stroke-width="0" stroke="transparent" fill-opacity="1" class="rect-o-0" data-fill-palette-color="primary" rx="1%" id="o-0" data-palette-color="#ed3b43"></rect></g><g transform="matrix(1,0,0,1,82.34872128918444,8.090129782923299)"><svg viewBox="0 0 395.52 42.3567004341534" height="42.3567004341534" width="395.52"><g><svg viewBox="0 0 395.52 42.3567004341534" height="42.3567004341534" width="395.52"><g><svg viewBox="0 0 395.52 42.3567004341534" height="42.3567004341534" width="395.52"><g transform="matrix(1,0,0,1,0,0)"><svg width="395.52" viewBox="3.5 -36 345.4800109863281 37" height="42.3567004341534" data-palette-color="#ed3b43"><path d="M21.5-2.5L21.5-2.5Q23.95-2.5 25.93-3.18 27.9-3.85 29.3-5.28 30.7-6.7 31.48-8.93 32.25-11.15 32.25-14.25L32.25-14.25 32.25-35 39.5-35 39.5-14.25Q39.5-6.55 34.8-2.78 30.1 1 21.5 1L21.5 1Q12.85 1 8.18-2.78 3.5-6.55 3.5-14.25L3.5-14.25 3.5-35 10.75-35 10.75-14.25Q10.75-11.15 11.53-8.93 12.3-6.7 13.7-5.28 15.1-3.85 17.07-3.18 19.05-2.5 21.5-2.5ZM57.25-35L70.25-5 70.75-5 83.75-35 94.5-35 94.5 0 87.25 0 87.25-28 86.75-28 74.75 0 66.25 0 54.25-28 53.75-28 53.75 0 46.5 0 46.5-35 57.25-35ZM120.5-32.5L120.5-32.5Q117.95-32.5 115.72-31.6 113.5-30.7 111.84-28.85 110.2-27 109.22-24.18 108.25-21.35 108.25-17.5L108.25-17.5Q108.25-13.65 109.22-10.83 110.2-8 111.84-6.15 113.5-4.3 115.72-3.4 117.95-2.5 120.5-2.5L120.5-2.5Q123.05-2.5 125.27-3.4 127.5-4.3 129.15-6.15 130.8-8 131.77-10.83 132.75-13.65 132.75-17.5L132.75-17.5Q132.75-21.35 131.77-24.18 130.8-27 129.15-28.85 127.5-30.7 125.27-31.6 123.05-32.5 120.5-32.5ZM120.5-36L120.5-36Q125-36 128.67-34.8 132.34-33.6 134.97-31.25 137.59-28.9 139.05-25.45 140.5-22 140.5-17.5L140.5-17.5Q140.5-13 139.05-9.55 137.59-6.1 134.97-3.75 132.34-1.4 128.67-0.2 125 1 120.5 1L120.5 1Q116 1 112.3-0.2 108.59-1.4 105.97-3.75 103.34-6.1 101.92-9.55 100.5-13 100.5-17.5L100.5-17.5Q100.5-22 101.92-25.45 103.34-28.9 105.97-31.25 108.59-33.6 112.3-34.8 116-36 120.5-36ZM174.24-35L181.49-35 181.49 0 174.24 0 174.24-15.25 153.74-15.25 153.74 0 146.49 0 146.49-35 153.74-35 153.74-19 174.24-19 174.24-35ZM258.49-35L245.99-17.75 259.24 0 250.99 0 239.49-15.5 230.74-15.5 230.74 0 223.49 0 223.49-35 230.74-35 230.74-19.25 238.99-19.25 250.49-35 258.49-35ZM279.73-32.5L279.73-32.5Q277.18-32.5 274.96-31.6 272.73-30.7 271.08-28.85 269.43-27 268.46-24.18 267.48-21.35 267.48-17.5L267.48-17.5Q267.48-13.65 268.46-10.83 269.43-8 271.08-6.15 272.73-4.3 274.96-3.4 277.18-2.5 279.73-2.5L279.73-2.5Q282.28-2.5 284.51-3.4 286.73-4.3 288.38-6.15 290.03-8 291.01-10.83 291.98-13.65 291.98-17.5L291.98-17.5Q291.98-21.35 291.01-24.18 290.03-27 288.38-28.85 286.73-30.7 284.51-31.6 282.28-32.5 279.73-32.5ZM279.73-36L279.73-36Q284.23-36 287.91-34.8 291.58-33.6 294.21-31.25 296.83-28.9 298.28-25.45 299.73-22 299.73-17.5L299.73-17.5Q299.73-13 298.28-9.55 296.83-6.1 294.21-3.75 291.58-1.4 287.91-0.2 284.23 1 279.73 1L279.73 1Q275.23 1 271.53-0.2 267.83-1.4 265.21-3.75 262.58-6.1 261.16-9.55 259.73-13 259.73-17.5L259.73-17.5Q259.73-22 261.16-25.45 262.58-28.9 265.21-31.25 267.83-33.6 271.53-34.8 275.23-36 279.73-36ZM337.23-31.25L312.98-31.25 312.98-19.25 331.23-19.25 331.23-15.5 312.98-15.5 312.98 0 305.73 0 305.73-35 337.23-35 337.23-31.25ZM348.98-35L348.98 0 341.73 0 341.73-35 348.98-35Z" opacity="1" transform="matrix(1,0,0,1,0,0)" fill="#ed3b43" class="undefined-text-0" data-fill-palette-color="primary" id="text-0"></path></svg></g></svg></g></svg></g></svg></g><g><svg viewBox="0 0 58.53014950853124 58.53696" height="58.53696" width="58.53014950853124"><g><svg xmlns="http://www.w3.org/2000/svg" xmlns:xlink="http://www.w3.org/1999/xlink" version="1.1" x="0" y="0" viewBox="7.063138484954834 6.651815414428711 85.23826599121094 85.24818420410156" style="enable-background:new 0 0 100 100;" xml:space="preserve" height="58.53696" width="58.53014950853124" class="icon-icon-0" data-fill-palette-color="accent" id="icon-0"><path d="M28.9 91.9c-1.5 0-3-0.3-4.4-0.8-4.5-1.6-7.8-5.3-8.7-10L7.3 36.7c-0.9-4.7 0.8-9.6 4.5-12.7L28.6 9.8c3.7-3.1 8.8-4 13.2-2.3l41.9 15.7c4.5 1.7 7.6 5.5 8.4 10.2 0.8 4.7-0.8 9.3-4.5 12.4L37.5 88.7C35.1 90.8 32 91.9 28.9 91.9zM37.2 12.7c-1.7 0-3.4 0.6-4.7 1.7L15.6 28.6c-2 1.7-3 4.4-2.5 7L21.7 80c0.5 2.6 2.3 4.6 4.8 5.5 2.5 0.9 5.2 0.4 7.2-1.3l50.2-42.9c2-1.7 2.9-4.2 2.5-6.8-0.5-2.6-2.2-4.7-4.6-5.6L39.7 13.2C38.9 12.8 38 12.7 37.2 12.7z" fill="#fee717" data-fill-palette-color="accent"></path></svg></g></svg></g></svg></g><defs></defs></svg><rect width="395.52" height="48.44957911607932" fill="none" stroke="none" visibility="hidden"></rect></g></svg></g></svg>